<svg width="21" height="21" viewBox="0 0 21 21" fill="none" xmlns="http://www.w3.org/2000/svg">
<g clip-path="url(#clip0_25_956)">
<path d="M17.4309 7.86169H9.90648C8.983 7.86169 8.23438 8.64387 8.23438 9.60873V17.4704C8.23438 18.4353 8.983 19.2174 9.90648 19.2174H17.4309C18.3544 19.2174 19.103 18.4353 19.103 17.4704V9.60873C19.103 8.64387 18.3544 7.86169 17.4309 7.86169Z" stroke="white" stroke-width="1.66667" stroke-linecap="round" stroke-linejoin="round"/>
<path d="M4.88999 13.1028H4.05394C3.61047 13.1028 3.18516 12.9188 2.87158 12.5911C2.558 12.2635 2.38184 11.8191 2.38184 11.3558V3.49411C2.38184 3.03077 2.558 2.5864 2.87158 2.25877C3.18516 1.93113 3.61047 1.74707 4.05394 1.74707H11.5784C12.0219 1.74707 12.4472 1.93113 12.7607 2.25877C13.0743 2.5864 13.2505 3.03077 13.2505 3.49411V4.36763" stroke="#0ECF86" stroke-width="1.66667" stroke-linecap="round" stroke-linejoin="round"/>
</g>
<defs>
<clipPath id="clip0_25_956">
<rect width="20.0652" height="20.9645" fill="white" transform="translate(0.709961)"/>
</clipPath>
</defs>
</svg>